<?xml version="1.0" encoding="UTF-8"?>
<svg version="1.1" xmlns="http://www.w3.org/2000/svg" width="1536" height="1024">
<path d="M0 0 C506.88 0 1013.76 0 1536 0 C1536 337.92 1536 675.84 1536 1024 C1029.12 1024 522.24 1024 0 1024 C0 686.08 0 348.16 0 0 Z " fill="#171A1E" transform="translate(0,0)"/>
<path d="M0 0 C1.64052813 1.39865539 3.2654273 2.81582945 4.875 4.25 C5.720625 4.96671875 6.56625 5.6834375 7.4375 6.421875 C17.08502561 15.18700498 24.5463266 28.63364038 25.2109375 41.8515625 C25.51724146 58.65999243 22.58829394 70.54681624 11.03515625 83.27734375 C1.86496839 92.13733498 -9.80744663 95.53953531 -22.24829102 95.56689453 C-31.77134567 95.37982834 -40.32964981 91.98587229 -47.125 85.25 C-52.42434163 78.67598377 -55.67913576 72.24867667 -55.43359375 63.68359375 C-54.63734432 57.40431023 -52.34807061 51.96686032 -47.75 47.5625 C-45.06759911 45.52041416 -44.32855705 45.2538407 -40.8125 45.1875 C-38.125 46.25 -38.125 46.25 -36.125 49.25 C-36.27461404 53.28957896 -36.50252817 55.53321425 -39.1875 58.625 C-41.62672007 61.92974978 -41.70301669 64.01292751 -41.515625 68.03515625 C-40.75123334 72.36925699 -38.37102464 75.12455839 -35.1875 78 C-27.78200086 82.4881813 -19.36936145 82.36143193 -11.046875 80.59765625 C-2.33960047 77.76414373 3.6253582 73.18341673 7.8125 65 C12.2154702 55.38809218 12.44094278 43.85083504 10.00390625 33.578125 C4.55098045 19.77596526 -5.845804 10.17284624 -19.2890625 4.2578125 C-32.35729298 -0.38626941 -49.60954759 -1.40350983 -62.57421875 4 C-63.41597656 4.4125 -64.25773437 4.825 -65.125 5.25 C-66.03894531 5.6625 -66.95289063 6.075 -67.89453125 6.5 C-83.9723477 14.41523271 -94.32070818 28.42227738 -100.12890625 45.04296875 C-107.18179304 67.75049838 -104.41978237 89.13902839 -93.68359375 110.05859375 C-81.52151807 131.30080222 -62.47465262 144.88045436 -39.125 151.25 C-25.24512397 154.67993706 -11.31775044 155.42150979 2.9375 155.375 C4.72124023 155.38080078 4.72124023 155.38080078 6.54101562 155.38671875 C13.00913981 155.37961482 19.26125833 155.1129623 25.66577148 154.17138672 C27.875 154.25 27.875 154.25 29.64868164 155.54345703 C31.54644156 158.18437716 31.33465778 160.09806095 30.875 163.25 C27.2535137 167.65876593 20.45969061 167.92553099 15.13671875 168.59375 C-17.71296544 171.66142479 -53.95476365 167.13474087 -80.38525391 145.72460938 C-100.0161554 129.08545066 -113.3122037 107.92838008 -117.125 82.25 C-118.72966574 56.73913469 -114.52626245 33.17779719 -97.74609375 13.1796875 C-73.222199 -14.23152124 -30.68821068 -23.69838422 0 0 Z " fill="#F7F7F2" transform="translate(523.125,446.75)"/>
<path d="M0 0 C5.96456644 0.03075868 10.40934658 1.28793879 15.76416016 3.85131836 C16.53832275 4.21040283 17.31248535 4.5694873 18.11010742 4.93945312 C46.84387708 18.5635022 69.30062915 39.68881116 81.13916016 69.41381836 C83.3486164 76.26963112 84.76800942 83.22004387 85.13916016 90.41381836 C85.20361328 91.56237305 85.26806641 92.71092773 85.33447266 93.89428711 C86.10780047 120.00698953 75.66153563 144.20833307 58.13916016 163.41381836 C52.15284439 169.4858059 45.5024168 174.15035232 38.13916016 178.41381836 C37.21361328 178.95135742 36.28806641 179.48889648 35.33447266 180.04272461 C15.39488236 190.82307221 -7.42604858 191.74594869 -28.86083984 185.41381836 C-46.43615929 179.68460884 -61.20949526 167.81263571 -69.86083984 151.41381836 C-76.0688433 137.35735458 -79.18335781 121.14546649 -73.79833984 106.22631836 C-71.24487699 100.60870008 -67.98461974 95.97782748 -63.86083984 91.41381836 C-63.36197266 90.80022461 -62.86310547 90.18663086 -62.34912109 89.55444336 C-56.64600978 83.06122846 -47.97437649 79.11833057 -39.86083984 76.41381836 C-26.68141486 75.59680116 -15.91205162 75.80558526 -5.42333984 84.72631836 C0.70861954 90.64414583 4.14925643 96.4214766 4.51416016 105.03881836 C4.43576039 111.67339896 1.95285357 117.1360865 -2.35302734 122.15209961 C-4.63368303 124.24959383 -6.498214 125.34635309 -9.54833984 125.91381836 C-11.86083984 125.41381836 -11.86083984 125.41381836 -13.67333984 124.35131836 C-15.55727699 121.27752618 -15.29264693 118.92996178 -14.86083984 115.41381836 C-12.92333984 113.16381836 -12.92333984 113.16381836 -10.86083984 111.41381836 C-9.36990639 106.94101799 -8.69313374 102.78751602 -10.81396484 98.47631836 C-15.59854286 92.09688101 -22.71930589 90.00546607 -30.36083984 88.91381836 C-41.44057212 90.49663726 -49.92461082 95.53709605 -57.09130859 104.01928711 C-63.19164987 112.27427431 -62.69006406 122.56431282 -61.86083984 132.41381836 C-59.94840706 144.38246017 -53.09462581 154.78849834 -43.86083984 162.41381836 C-40.64533233 164.67882994 -37.3484578 166.60047952 -33.86083984 168.41381836 C-33.16603516 168.79280273 -32.47123047 169.17178711 -31.75537109 169.56225586 C-15.01130733 177.91858036 4.85689141 177.02391776 22.22509766 171.41772461 C42.19740081 163.84292722 55.41105523 148.88246379 64.56494141 130.01928711 C72.67262647 111.45007292 74.44512243 89.53506087 67.13916016 70.41381836 C55.66728418 42.60136572 32.91250293 26.13157562 6.13916016 14.41381836 C5.13626953 13.9690918 4.13337891 13.52436523 3.10009766 13.06616211 C2.28798828 12.70651367 1.47587891 12.34686523 0.63916016 11.97631836 C-2.86083984 10.41381836 -2.86083984 10.41381836 -3.86083984 9.41381836 C-4.41081356 0.98088808 -4.41081356 0.98088808 0 0 Z " fill="#F7F7F1" transform="translate(513.86083984375,389.586181640625)"/>
<path d="M0 0 C4.87943784 4.42553665 6.46176896 7.89612362 7.03515625 14.3515625 C7.56755273 29.86461532 3.67961387 43.89031904 -6.6875 55.8125 C-14.18212116 63.61991837 -22.1461729 69.62839855 -33.1875 70.875 C-38.68377879 70.59226961 -44.03894346 68.91409583 -49.3125 67.4375 C-49.4259375 68.54222656 -49.539375 69.64695312 -49.65625 70.78515625 C-50.29919688 75.92080762 -51.53202612 80.86651787 -52.8125 85.875 C-53.03808594 86.78443359 -53.26367188 87.69386719 -53.49609375 88.63085938 C-55.18110795 95.30610795 -55.18110795 95.30610795 -56.3125 96.4375 C-58.84299402 96.51063567 -61.34554837 96.52997527 -63.875 96.5 C-64.58591797 96.49548828 -65.29683594 96.49097656 -66.02929688 96.48632812 C-67.79040013 96.47450864 -69.55146036 96.45657263 -71.3125 96.4375 C-71.11205078 95.77782227 -70.91160156 95.11814453 -70.70507812 94.43847656 C-66.239188 79.60787319 -62.3214387 64.75116115 -59 49.625 C-58.83564453 48.87762573 -58.67128906 48.13025146 -58.50195312 47.36022949 C-57.41368549 42.39118417 -56.35439291 37.41645921 -55.3125 32.4375 C-55.1649527 31.73658234 -55.0174054 31.03566467 -54.86538696 30.31350708 C-54.43649499 28.2672961 -54.0139254 26.21989179 -53.59375 24.171875 C-53.35076172 22.99206055 -53.10777344 21.81224609 -52.85742188 20.59667969 C-52.19765776 16.77170314 -52.07584364 13.30288724 -52.3125 9.4375 C-54.9525 9.7675 -57.5925 10.0975 -60.3125 10.4375 C-60.1640625 8.6328125 -60.1640625 8.6328125 -59.3125 6.4375 C-52.33646501 1.83815832 -43.81332258 -2.07770137 -35.3125 -1.5625 C-34.36753057 2.12833804 -34.33665421 4.62637566 -35.30859375 8.30078125 C-35.53740234 9.18701172 -35.76621094 10.07324219 -36.00195312 10.98632812 C-36.24880859 11.89833984 -36.49566406 12.81035156 -36.75 13.75 C-36.99298828 14.68134766 -37.23597656 15.61269531 -37.48632812 16.57226562 C-38.08553989 18.86336944 -38.69450744 21.15140412 -39.3125 23.4375 C-38.81621094 22.6640625 -38.31992187 21.890625 -37.80859375 21.09375 C-24.84631605 1.21989728 -24.84631605 1.21989728 -14.34765625 -2.203125 C-9.28209339 -3.09761979 -4.60222495 -2.17086082 0 0 Z " fill="#F7F6F1" transform="translate(988.3125,473.5625)"/>
<path d="M0 0 C6.50606251 4.22558699 10.38553656 9.5606668 12.58203125 16.9609375 C14.93594271 28.44450558 11.51016651 40.62868981 5.65625 50.5 C-0.76959604 60.19939025 -8.97542101 66.55943556 -20.3671875 69.5234375 C-28.59347344 71.01246849 -35.45530524 70.74875415 -42.80859375 66.546875 C-48.59864836 62.45977763 -52.6557066 57.06587272 -54 50 C-55.36583922 35.22870174 -51.76278073 22.59380517 -42.41015625 11.03515625 C-31.31507967 -0.89531433 -15.35959234 -6.87524609 0 0 Z " fill="#F6F6F1" transform="translate(906,474)"/>
<path d="M0 0 C0.347061 6.17937874 -0.92856706 11.43647785 -2.5625 17.375 C-2.82772461 18.36580566 -3.09294922 19.35661133 -3.36621094 20.37744141 C-5.71512147 29.1006022 -8.15686363 37.79967903 -10.63891602 46.48583984 C-12.28942199 52.29382883 -13.75232595 58.09189643 -15 64 C-14.59910156 63.33355469 -14.19820312 62.66710937 -13.78515625 61.98046875 C-5.86850043 49.14507439 3.40283767 35.26119324 18.421875 30.5625 C22.02579866 29.77618938 24.49904215 29.80967433 28 31 C30.9375 33 30.9375 33 33 36 C34.74763543 46.48581261 29.37397131 57.80777045 26.14453125 67.67578125 C25.8307251 68.64233643 25.51691895 69.6088916 25.19360352 70.60473633 C24.57947566 72.4890681 23.9567031 74.3706116 23.32397461 76.2487793 C21.47903694 81.8787615 20.45654429 87.08895293 20 93 C25.06340114 91.10544826 25.06340114 91.10544826 29.1875 87.75 C29.785625 87.1725 30.38375 86.595 31 86 C33.25 86.25 33.25 86.25 35 87 C32.82964619 93.90567121 27.10762397 98.44746704 21 102 C17.07037223 103.23190712 13.07420618 103.69382521 9 103 C6 101 6 101 4 98 C3.23355973 90.60810939 5.42922765 84.25520617 7.625 77.25 C7.98529297 76.06946045 8.34558594 74.8889209 8.71679688 73.67260742 C9.45046467 71.26984538 10.18839924 68.86838188 10.93066406 66.46826172 C12.48537938 61.42573071 13.9916016 56.36903109 15.5 51.3125 C16.33200221 48.5412643 17.16596892 45.77062598 18 43 C12.03479823 42.72820424 9.58443877 43.3381289 5.1015625 47.05078125 C-11.0406841 62.02286499 -18.6163639 80.17563739 -24 101 C-29.28 101 -34.56 101 -40 101 C-37.73024838 91.90966678 -35.45330193 82.82133085 -33.15866089 73.73724365 C-31.9417528 68.91687798 -30.72874619 64.09553659 -29.51667595 59.27395248 C-28.60262853 55.63870899 -27.68678982 52.00393508 -26.76708984 48.37011719 C-25.86347838 44.79951707 -24.96463516 41.22774592 -24.06891251 37.655159 C-23.73174197 36.3137655 -23.39293938 34.97278095 -23.05233383 33.63225555 C-20.97831206 25.46456591 -19.2341953 17.33795878 -18 9 C-20.475 8.505 -20.475 8.505 -23 8 C-23 6.35 -23 4.7 -23 3 C-20.29273634 2.4935186 -17.58442876 1.994649 -14.875 1.5 C-13.73417969 1.28537109 -13.73417969 1.28537109 -12.5703125 1.06640625 C-8.31957086 0.29687544 -4.34140803 -0.16644376 0 0 Z " fill="#F8F7F2" transform="translate(749,441)"/>
<path d="M0 0 C25.41 0 50.82 0 77 0 C77 15.75 77 15.75 76.5 21.375 C76.4071875 22.45523437 76.314375 23.53546875 76.21875 24.6484375 C76.1465625 25.42445313 76.074375 26.20046875 76 27 C74.35 26.67 72.7 26.34 71 26 C70.81824219 25.33613281 70.63648438 24.67226563 70.44921875 23.98828125 C68.66828906 17.01877607 68.66828906 17.01877607 65 11 C59.09185759 8.09775461 53.51099612 7.4337604 47 7 C46.8984964 7.6169574 46.7969928 8.23391479 46.69241333 8.86956787 C45.39615595 16.38753492 43.66766477 23.77270236 41.82540512 31.1720047 C41.29211101 33.3161906 40.76392038 35.46157789 40.23709106 37.60736084 C38.74079631 43.69938112 37.23814284 49.78980471 35.72607422 55.87792969 C34.79614659 59.62366463 33.8741457 63.37127801 32.95703506 67.12017059 C32.60839139 68.53858826 32.25676405 69.95627623 31.90200424 71.37317657 C31.40622322 73.35412913 30.92057678 75.33732456 30.43701172 77.32128906 C30.01970291 79.00692963 30.01970291 79.00692963 29.59396362 80.72662354 C28.96083789 84.21582521 28.89690093 87.46142115 29 91 C29.71027344 91.19335938 30.42054688 91.38671875 31.15234375 91.5859375 C32.07144531 91.84632813 32.99054687 92.10671875 33.9375 92.375 C34.85402344 92.63023437 35.77054688 92.88546875 36.71484375 93.1484375 C39 94 39 94 40 96 C39.505 97.485 39.505 97.485 39 99 C24.81 99 10.62 99 -4 99 C-3.67 97.35 -3.34 95.7 -3 94 C0.96 93.01 4.92 92.02 9 91 C11.47612663 81.20153733 13.87998976 71.3912832 16.17029381 61.54747581 C16.65272602 59.47417592 17.13682397 57.40127049 17.62129211 55.32844543 C18.81965448 50.19982533 20.01547099 45.07061255 21.21105957 39.94134521 C22.2321493 35.56101998 23.25435722 31.18095885 24.27814674 26.80126381 C24.7539966 24.76353723 25.22818345 22.72542829 25.70231628 20.68730164 C25.98964127 19.45784317 26.27696625 18.2283847 26.57299805 16.96166992 C26.825186 15.87963791 27.07737396 14.7976059 27.33720398 13.68278503 C28 11 28 11 29 8 C20.6409248 7.35367975 13.77951377 7.66511416 7 13 C3.98487253 16.46537302 1.45020458 20.12050941 -1 24 C-1.66 24.99 -2.32 25.98 -3 27 C-4.32 26.67 -5.64 26.34 -7 26 C-6.39894706 23.54086969 -5.79421198 21.08273506 -5.1875 18.625 C-5.02185547 17.94566406 -4.85621094 17.26632812 -4.68554688 16.56640625 C-3.29916689 10.96857007 -1.6629569 5.54318966 0 0 Z " fill="#F8F8F3" transform="translate(641,443)"/>
<path d="M0 0 C3.68517378 3.42064398 5.87760268 6.58019106 6.3125 11.625 C6.19967084 17.85316962 3.58126699 22.77652958 -0.8125 27.125 C-9.22467363 33.71928865 -29.17026194 42 -40 42 C-39.7438709 44.08519216 -39.46951265 46.1681505 -39.1875 48.25 C-39.03667969 49.41015625 -38.88585937 50.5703125 -38.73046875 51.765625 C-37.99410601 55.02609745 -37.32218307 56.6384579 -35 59 C-29.52479797 60.82506734 -24.15158829 60.85386506 -18.875 58.375 C-14.8114894 56.10661457 -11.38427183 53.17275484 -8 50 C-6.68 50.66 -5.36 51.32 -4 52 C-5.68348437 58.17277603 -10.18914078 62.31607512 -15.54296875 65.5234375 C-23.40198263 69.54000885 -30.11240051 71.0039907 -39 70 C-45.97886584 67.35008695 -50.43665776 62.01886777 -53.8125 55.5 C-57.62306098 44.00261772 -54.79136991 31.57268314 -49.52734375 21.05859375 C-42.75577426 9.54852646 -32.75749364 1.36102358 -19.875 -2.3125 C-12.74345062 -3.57777489 -6.45545281 -3.7380934 0 0 Z " fill="#F8F7F2" transform="translate(845,474)"/>
<path d="M0 0 C2 2 2 2 2.25 5.5 C2 9 2 9 0 11 C-5.82619695 11.6151885 -9.61135698 10.18784002 -14.6875 7.6875 C-25.36437686 2.46357353 -35.81876719 0.42958093 -47.6875 0.5 C-48.82018311 0.50572021 -49.95286621 0.51144043 -51.11987305 0.51733398 C-70.34440358 0.92316848 -86.61932178 8.20615524 -101 21 C-101.68578125 21.60328125 -102.3715625 22.2065625 -103.078125 22.828125 C-109.09126479 28.46248433 -113.48876264 35.16655742 -118 42 C-119.16666667 43.75 -120.33333333 45.5 -121.5 47.25 C-122.19609375 48.30960937 -122.19609375 48.30960937 -122.90625 49.390625 C-124 51 -124 51 -125 52 C-130.24050633 52.4556962 -130.24050633 52.4556962 -132.875 50.875 C-134.54211167 48.09648055 -134.29168898 46.21615509 -134 43 C-132.86974933 40.50293456 -131.75126022 38.36531159 -130.3125 36.0625 C-129.91675781 35.41788818 -129.52101563 34.77327637 -129.11328125 34.10913086 C-114.06673073 10.44120507 -92.35667549 -5.47056093 -65 -12 C-44.19685675 -16.33877711 -17.42102851 -12.62578201 0 0 Z " fill="#F7F6F1" transform="translate(530,419)"/>
<path d="M0 0 C3.3 0 6.6 0 10 0 C9.36151975 5.52615663 8.06211576 10.62515713 6.4375 15.9375 C5.633125 18.598125 4.82875 21.25875 4 24 C9.94 24 15.88 24 22 24 C22 25.65 22 27.3 22 29 C21 30 21 30 19.14233398 30.11352539 C17.95619507 30.10567017 17.95619507 30.10567017 16.74609375 30.09765625 C15.89208984 30.09443359 15.03808594 30.09121094 14.15820312 30.08789062 C13.26037109 30.07951172 12.36253906 30.07113281 11.4375 30.0625 C10.53580078 30.05798828 9.63410156 30.05347656 8.70507812 30.04882812 C6.46998686 30.03700225 4.23502563 30.0205222 2 30 C1.91508301 30.58160889 1.83016602 31.16321777 1.74267578 31.76245117 C0.07716639 41.98752356 -2.95859551 51.83699389 -5.83740234 61.77075195 C-6.52592401 64.1538946 -7.20481701 66.53962627 -7.8828125 68.92578125 C-8.09527618 69.64776199 -8.30773987 70.36974274 -8.52664185 71.11360168 C-9.67797002 75.18280681 -10.22413178 78.77333769 -10 83 C-4.58754788 82.72243835 -1.38784599 80.46902444 2.8515625 77.375 C4.95028078 76.0318203 6.56724413 75.4403178 9 75 C9.99 76.485 9.99 76.485 11 78 C5.96104418 85.12404099 -1.71160953 90.26742127 -10 93 C-15.286714 93.72160608 -19.56338262 93.87323801 -24.1875 91.0625 C-27.32702358 85.75778774 -26.38713597 80.08763886 -25.02197266 74.23388672 C-24.58068792 72.54614464 -24.12755696 70.86146585 -23.6640625 69.1796875 C-23.42464935 68.27678986 -23.18523621 67.37389221 -22.93856812 66.44363403 C-22.17776893 63.58452404 -21.40161923 60.72984842 -20.625 57.875 C-20.11097134 55.95209204 -19.59794152 54.02891679 -19.0859375 52.10546875 C-17.1141169 44.72039053 -15.11870233 37.34442294 -13 30 C-16.63 30 -20.26 30 -24 30 C-23.67 28.02 -23.34 26.04 -23 24 C-22.39671875 23.97421875 -21.7934375 23.9484375 -21.171875 23.921875 C-20.37265625 23.86515625 -19.5734375 23.8084375 -18.75 23.75 C-17.96109375 23.70359375 -17.1721875 23.6571875 -16.359375 23.609375 C-12.42077763 22.59212137 -10.78561894 20.32615425 -8.75097656 16.89160156 C-7.37373268 14.36479922 -6.05360789 11.81553064 -4.75 9.25 C-4.29109375 8.36183594 -3.8321875 7.47367187 -3.359375 6.55859375 C-2.23281179 4.37587754 -1.11548672 2.18839761 0 0 Z " fill="#F6F6F1" transform="translate(1029,451)"/>
<path d="M0 0 C3.59820071 2.14360894 5.49674284 4.13074678 7 8 C8.55029526 21.90370066 5.65828744 37.65787683 -3 49 C-7.14299287 53.37081529 -11.60077993 57.86477807 -17.90625 58.05859375 C-21.95352289 57.8245164 -23.70072769 57.24196485 -26.9375 54.625 C-31.49105723 48.82956353 -30.60481037 41.0401905 -30 34 C-27.98081944 22.36951996 -24.24909861 10.66654045 -14.7109375 3.12109375 C-9.82799372 -0.07846074 -5.79781196 -0.84896532 0 0 Z " fill="#16191C" transform="translate(897,479)"/>
<path d="M0 0 C1.36527726 0.95592667 2.70928196 1.94556901 4 3 C3.46949266 7.50931237 1.8595705 10.48681339 -1 14 C-5 14 -5 14 -6.4921875 12.5390625 C-7.17667969 11.59160156 -7.17667969 11.59160156 -7.875 10.625 C-10.62504184 7.2201863 -12.54518204 5.72731722 -17 5 C-22.05732184 5.21161238 -22.05732184 5.21161238 -26 8 C-26.68426651 13.66963679 -26.04385452 17.04259469 -22.82421875 21.73828125 C-20.51661148 24.59931896 -18.01697728 27.26242535 -15.5 29.9375 C-9.49992862 36.35443738 -4.85262251 41.62806168 -4.4375 50.6875 C-4.75393393 56.51312978 -6.43483659 59.6907965 -10.80078125 63.62109375 C-19.25214071 70.46423335 -28.4230472 70.91637482 -39 70 C-44.38681858 68.60163149 -48.64040916 66.43453093 -53 63 C-51.77472971 58.94718288 -50.30119506 55.55639236 -48 52 C-45.75 52.125 -45.75 52.125 -43 53 C-42.38125 53.94875 -41.7625 54.8975 -41.125 55.875 C-38.46712795 59.78363537 -36.48095777 60.63292814 -32 62 C-27.40534857 62.39609064 -24.15266388 62.01341279 -20 60 C-18.6969127 56.0907381 -18.47387832 54.12646116 -20.24609375 50.33203125 C-23.41620918 45.21324798 -26.83840957 40.98093949 -31.2265625 36.890625 C-36.84129144 30.90487873 -41.47834032 23.55884849 -41.33984375 15.1875 C-40.49921326 9.77654513 -37.01955717 5.51725615 -32.8125 2.1875 C-22.61603814 -4.359469 -10.98559752 -4.61053575 0 0 Z " fill="#F7F7F2" transform="translate(1133,474)"/>
<path d="M0 0 C1.61328125 1.01171875 1.61328125 1.01171875 3 3 C3.33330679 5.84662012 3.4747751 8.40466702 3.4375 11.25 C3.42992676 12.05195801 3.42235352 12.85391602 3.41455078 13.68017578 C3.07267215 26.2947485 -0.32451521 40.78898192 -9.09375 50.26171875 C-14.60566188 55.18449512 -17.89453781 56.34145126 -25.29296875 56.29296875 C-28.88443175 55.90428228 -30.63040824 54.68553733 -33 52 C-35.54036752 46.91926497 -34.55941258 40.76614542 -32.90625 35.546875 C-28.25101503 24.30497777 -15.75868909 -3.06418955 0 0 Z " fill="#16191C" transform="translate(977,481)"/>
<path d="M0 0 C3.625 0.3125 3.625 0.3125 5.625 1.9375 C6.98889541 5.17675161 6.43405987 6.89826733 5.625 10.3125 C4.52990496 12.77646383 3.41439593 15.08235068 2.125 17.4375 C1.76897705 18.09274658 1.4129541 18.74799316 1.04614258 19.4230957 C-12.5369077 43.79799634 -35.02999704 64.03399911 -62 72.125 C-66.66254797 73.29397693 -71.59913319 74.3273717 -76.375 73.3125 C-78.1015625 71.9765625 -78.1015625 71.9765625 -79.375 70.3125 C-80.00839731 65.2453215 -80.00839731 65.2453215 -78.30078125 62.73046875 C-75.52427632 60.68610508 -72.50056429 60.28705983 -69.1875 59.625 C-46.16204212 54.4128808 -26.98850256 38.92868349 -14.50292969 19.16455078 C-11.56638265 14.34276597 -8.83156413 9.40659029 -6.125 4.453125 C-3.84187391 0.35572907 -3.84187391 0.35572907 0 0 Z " fill="#F7F7F2" transform="translate(604.375,525.6875)"/>
<path d="M0 0 C3.89591658 10.38911088 -5.47809242 28.97079736 -8.82568359 38.76171875 C-11.39989976 46.4592476 -13.03137157 53.94087813 -14 62 C-8.93659886 60.10544826 -8.93659886 60.10544826 -4.8125 56.75 C-4.214375 56.1725 -3.61625 55.595 -3 55 C-0.75 55.25 -0.75 55.25 1 56 C0.28629697 60.81749543 -2.32661053 63.74722741 -6.16015625 66.6171875 C-12.74854562 71.09514971 -17.9306191 73.10937479 -26 72 C-28.625 70.125 -28.625 70.125 -30 67 C-30.70382782 60.20694388 -29.59926199 54.3520422 -27.41015625 47.95703125 C-27.14617538 47.14433273 -26.88219452 46.33163422 -26.61021423 45.49430847 C-25.774695 42.92895502 -24.91988262 40.37062016 -24.0625 37.8125 C-23.21187896 35.24276975 -22.36558969 32.67174834 -21.52549744 30.09855652 C-21.00477719 28.50688353 -20.4776202 26.9172964 -19.94288635 25.33027649 C-18.47313002 20.87534049 -17.51986587 16.66494004 -17 12 C-19.64 12 -22.28 12 -25 12 C-25 10.68 -25 9.36 -25 8 C-17.38629235 3.90031127 -8.82853431 -0.45191766 0 0 Z " fill="#F6F5F0" transform="translate(1079,472)"/>
<path d="M0 0 C4.76555048 1.96063002 7.51069456 5.27138911 9.8125 9.875 C10.43083818 17.04772285 9.02361249 21.85143737 4.515625 27.5 C-5.10215363 37.01862627 -22.59481087 40.05246143 -35.1875 43.875 C-34.875 41.9375 -34.875 41.9375 -34.1875 39.875 C-32.7025 39.38 -32.7025 39.38 -31.1875 38.875 C-31.1875 38.215 -31.1875 37.555 -31.1875 36.875 C-33.1675 37.37 -33.1675 37.37 -35.1875 37.875 C-32.60205993 26.81856525 -29.21065806 17.22949184 -20.1875 9.875 C-18.52723644 8.86440479 -16.86279898 7.86046999 -15.1875 6.875 C-14.8575 5.885 -14.5275 4.895 -14.1875 3.875 C-13.5275 3.875 -12.8675 3.875 -12.1875 3.875 C-12.1875 3.215 -12.1875 2.555 -12.1875 1.875 C-12.8475 1.215 -13.5075 0.555 -14.1875 -0.125 C-9.8040863 -2.31670685 -4.52250595 -1.45887289 0 0 Z " fill="#F6F5F0" transform="translate(841.1875,472.125)"/>
<path d="M0 0 C2.45973778 2.45973778 2.32301675 3.29299385 2.375 6.6875 C2.21908606 12.70751028 0.67751101 16.1997998 -3.44921875 20.515625 C-9.29329363 25.50607097 -21.19279112 32 -29 32 C-26.24988594 20.23934962 -22.49384998 9.54734001 -11.984375 2.68359375 C-7.94979913 0.47381651 -4.6825604 -0.6689372 0 0 Z " fill="#16191C" transform="translate(835,478)"/>
<path d="M0 0 C3.10672287 2.64071444 3.86512486 4.5363667 5 8.4375 C5 13.0076805 4.1878483 14.7343993 1 18 C-2.88850055 19.45008666 -5.95000357 19.39666532 -9.8125 17.9375 C-12.6040399 15.46499323 -13.77776186 13.53091019 -15 10 C-15 5.81348545 -14.62422227 3.78027784 -12 0.5 C-7.78071301 -1.60964349 -4.46247679 -1.42632436 0 0 Z " fill="#F4F4EF" transform="translate(1082,442)"/>
<path d="M0 0 C1.36527726 0.95592667 2.70928196 1.94556901 4 3 C3.46949266 7.50931237 1.8595705 10.48681339 -1 14 C-5 14 -5 14 -6.4921875 12.5390625 C-6.94851563 11.90742188 -7.40484375 11.27578125 -7.875 10.625 C-10.56026799 7.23416415 -12.6762885 5.92650961 -17 5 C-17 4.34 -17 3.68 -17 3 C-18.65 3 -20.3 3 -22 3 C-22.33 1.35 -22.66 -0.3 -23 -2 C-15.10927397 -4.19383414 -7.50914698 -3.15150728 0 0 Z " fill="#F4F4EF" transform="translate(1133,474)"/>
<path d="M0 0 C1.61247557 4.04679353 0.35478634 7.65372838 -0.6875 11.6875 C-1.06569257 13.20688491 -1.44327853 14.72642092 -1.8203125 16.24609375 C-2.01657227 17.02710449 -2.21283203 17.80811523 -2.41503906 18.61279297 C-2.99425535 20.97655625 -3.53157322 23.34589788 -4.0546875 25.72265625 C-4.22395752 26.48167236 -4.39322754 27.24068848 -4.56762695 28.02270508 C-4.88987169 29.47304486 -5.20641355 30.92466733 -5.51635742 32.37768555 C-6.43111553 36.41309516 -7.66146659 39.58163388 -10 43 C-11.73698433 39.52603135 -9.87325198 35.710992 -8.9453125 32.08984375 C-8.61380692 30.76588341 -8.61380692 30.76588341 -8.27560425 29.41517639 C-7.806378 27.54734542 -7.33371586 25.68037478 -6.85791016 23.81420898 C-6.12761998 20.94778356 -5.40865026 18.07869882 -4.69140625 15.20898438 C-4.23504096 13.39826952 -3.77803147 11.58771689 -3.3203125 9.77734375 C-3.10359894 8.91382797 -2.88688538 8.05031219 -2.66360474 7.16062927 C-1.11604615 1.11604615 -1.11604615 1.11604615 0 0 Z " fill="#EDEEEC" transform="translate(724,485)"/>
<path d="M0 0 C2.97 0.33 5.94 0.66 9 1 C9.33 2.65 9.66 4.3 10 6 C7.24921116 6.91692961 5.64051087 7.10886083 2.8125 7.0625 C0.9253125 7.0315625 0.9253125 7.0315625 -1 7 C-1.33 6.01 -1.66 5.02 -2 4 C-1.34 3.34 -0.68 2.68 0 2 C0 1.34 0 0.68 0 0 Z M9 0 C11 1 11 1 11 1 Z " fill="#EAEAE5" transform="translate(952,537)"/>
<path d="M0 0 C0.99 0.33 1.98 0.66 3 1 C9.35461849 1.44183441 15.69342672 0.73730293 22 0 C18.58788584 2.27474277 16.3431471 2.56629644 12.3125 3.125 C11.13300781 3.29257812 9.95351563 3.46015625 8.73828125 3.6328125 C7.83464844 3.75398437 6.93101562 3.87515625 6 4 C6.66 4.66 7.32 5.32 8 6 C4.37 6 0.74 6 -3 6 C-2.34 5.34 -1.68 4.68 -1 4 C-0.3574765 1.93125966 -0.3574765 1.93125966 0 0 Z " fill="#0A0C0D" transform="translate(525,597)"/>
<path d="M0 0 C0.66 0 1.32 0 2 0 C3.44207941 2.88415883 3.09394887 5.41721528 3.0625 8.625 C3.05347656 9.81351563 3.04445313 11.00203125 3.03515625 12.2265625 C3.02355469 13.14179687 3.01195312 14.05703125 3 15 C2.34 15 1.68 15 1 15 C0.67 15.66 0.34 16.32 0 17 C0 11.39 0 5.78 0 0 Z " fill="#212325" transform="translate(403,507)"/>
<path d="M0 0 C0.33 0.99 0.66 1.98 1 3 C0 5 -1 7 -2 9 C-1.2236068 12.0745356 -1.2236068 12.0745356 1 14 C0.4225 13.835 -0.155 13.67 -0.75 13.5 C-3.26664369 12.85537969 -3.26664369 12.85537969 -7 13 C-7.66 12.34 -8.32 11.68 -9 11 C-6.03 7.37 -3.06 3.74 0 0 Z " fill="#0C0E0F" transform="translate(1083,526)"/>
<path d="M0 0 C1.20220203 3.53094302 0.79532349 6.12898982 0.0625 9.75 C-0.13214844 10.73484375 -0.32679688 11.7196875 -0.52734375 12.734375 C-0.68332031 13.48203125 -0.83929687 14.2296875 -1 15 C-1.66 15 -2.32 15 -3 15 C-3.12375 15.969375 -3.2475 16.93875 -3.375 17.9375 C-3.58125 18.948125 -3.7875 19.95875 -4 21 C-4.66 21.33 -5.32 21.66 -6 22 C-5.37987481 19.26964299 -4.75409113 16.54079236 -4.125 13.8125 C-3.95097656 13.04357422 -3.77695312 12.27464844 -3.59765625 11.48242188 C-2.67454956 7.49938746 -1.66927814 3.75211617 0 0 Z " fill="#EEEEEC" transform="translate(1015,487)"/>
<path d="M0 0 C0.33 0.66 0.66 1.32 1 2 C6.28 2 11.56 2 17 2 C17.33 2.66 17.66 3.32 18 4 C11.73 4 5.46 4 -1 4 C-0.67 2.68 -0.34 1.36 0 0 Z " fill="#050708" transform="translate(1034,471)"/>
<path d="M0 0 C2 1 2 1 2 1 Z M-5 4 C-4.34 4.33 -3.68 4.66 -3 5 C-3.33 5.66 -3.66 6.32 -4 7 C-3.67 7.99 -3.34 8.98 -3 10 C-3.9375 12.1875 -3.9375 12.1875 -5 14 C-8 12 -8 12 -8.6875 9.375 C-8.790625 8.59125 -8.89375 7.8075 -9 7 C-7.68 6.01 -6.36 5.02 -5 4 Z " fill="#EFEEEB" transform="translate(837,524)"/>
<path d="M0 0 C0.66 0.99 1.32 1.98 2 3 C1.42578125 5.15625 1.42578125 5.15625 0.3125 7.5 C-0.04199219 8.2734375 -0.39648438 9.046875 -0.76171875 9.84375 C-1.96896881 11.94596461 -3.20604183 13.38698862 -5 15 C-4.5520266 12.68547078 -4.09133539 10.37339961 -3.625 8.0625 C-3.36976563 6.77472656 -3.11453125 5.48695313 -2.8515625 4.16015625 C-2.57054687 3.11730469 -2.28953125 2.07445312 -2 1 C-1.34 0.67 -0.68 0.34 0 0 Z " fill="#1F2021" transform="translate(738,491)"/>
<path d="M0 0 C2.875 0.3125 2.875 0.3125 6 1 C8 4 8 4 7.75 7.625 C7.5025 8.73875 7.255 9.8525 7 11 C6.01 11.495 6.01 11.495 5 12 C4.67 9.03 4.34 6.06 4 3 C2.35 3 0.7 3 -1 3 C-0.67 2.01 -0.34 1.02 0 0 Z " fill="#EBEBE8" transform="translate(479,492)"/>
<path d="M0 0 C0.66 0.33 1.32 0.66 2 1 C1.01 1.99 0.02 2.98 -1 4 C-1.66 3.67 -2.32 3.34 -3 3 C-2.01 2.01 -1.02 1.02 0 0 Z M-5 4 C-4.34 4.33 -3.68 4.66 -3 5 C-4.09346881 6.34212062 -5.2001575 7.67347975 -6.3125 9 C-7.23482422 10.11375 -7.23482422 10.11375 -8.17578125 11.25 C-10 13 -10 13 -13 13 C-12.04270084 11.87411986 -11.08412105 10.7493285 -10.125 9.625 C-9.59132813 8.99851562 -9.05765625 8.37203125 -8.5078125 7.7265625 C-7.38567993 6.44163349 -6.20628025 5.20628025 -5 4 Z " fill="#F0F0EE" transform="translate(439,447)"/>
<path d="M0 0 C1.60031344 3.20062687 0.03173691 5.72271806 -1 9 C-0.34 8.01 0.32 7.02 1 6 C1.99 6.99 2.98 7.98 4 9 C-1.75 12 -1.75 12 -4 12 C-3.52494322 10.18641846 -3.04483958 8.37415821 -2.5625 6.5625 C-2.29566406 5.55316406 -2.02882813 4.54382813 -1.75390625 3.50390625 C-1 1 -1 1 0 0 Z " fill="#101212" transform="translate(810,498)"/>
<path d="M0 0 C2.29141286 -0.05384521 4.58318188 -0.09272087 6.875 -0.125 C8.78925781 -0.15980469 8.78925781 -0.15980469 10.7421875 -0.1953125 C14 0 14 0 16 2 C12.91844479 2.88863453 10.07956404 3.19260482 6.875 3.25 C5.57175781 3.28867187 5.57175781 3.28867187 4.2421875 3.328125 C3.13230469 3.16570313 3.13230469 3.16570313 2 3 C1.34 2.01 0.68 1.02 0 0 Z " fill="#222527" transform="translate(510,600)"/>
<path d="M0 0 C0.99 0.33 1.98 0.66 3 1 C2.71125 1.845625 2.4225 2.69125 2.125 3.5625 C0.99227296 7.02361041 -0.01824316 10.49372557 -1 14 C-1.66 14 -2.32 14 -3 14 C-2.69024532 12.22868439 -2.37709575 10.45796222 -2.0625 8.6875 C-1.88847656 7.70136719 -1.71445312 6.71523438 -1.53515625 5.69921875 C-1 3 -1 3 0 0 Z " fill="#EFF0ED" transform="translate(1007,515)"/>
<path d="M0 0 C0.66 0.33 1.32 0.66 2 1 C2 1.66 2 2.32 2 3 C2.66 2.34 3.32 1.68 4 1 C4.33 1.66 4.66 2.32 5 3 C4.22265625 4.7265625 4.22265625 4.7265625 3.0625 6.625 C2.0415625 8.295625 2.0415625 8.295625 1 10 C0.34 9.34 -0.32 8.68 -1 8 C-0.34 7.01 0.32 6.02 1 5 C0.01 5 -0.98 5 -2 5 C-2 5.66 -2 6.32 -2 7 C-2.66 7 -3.32 7 -4 7 C-3.67 6.01 -3.34 5.02 -3 4 C-2.34 4 -1.68 4 -1 4 C-0.67 2.68 -0.34 1.36 0 0 Z " fill="#DBDBD8" transform="translate(950,495)"/>
<path d="M0 0 C0 2.8996083 -0.21438138 5.21462489 -1 8 C-1.99 8.66 -2.98 9.32 -4 10 C-5.20450304 12.55183404 -5.20450304 12.55183404 -6 15 C-6.6796875 13.32421875 -6.6796875 13.32421875 -7 11 C-5.8203125 8.45703125 -5.8203125 8.45703125 -4.125 5.8125 C-3.57070313 4.93207031 -3.01640625 4.05164063 -2.4453125 3.14453125 C-1 1 -1 1 0 0 Z " fill="#0D0E0F" transform="translate(432,473)"/>
<path d="M0 0 C1.65 0 3.3 0 5 0 C5.625 1.8125 5.625 1.8125 6 4 C5.01 5.485 5.01 5.485 4 7 C3.31822584 8.32567199 2.64808564 9.65753688 2 11 C2.04125 9.88625 2.0825 8.7725 2.125 7.625 C2.41121859 3.95633975 2.41121859 3.95633975 0 2 C0 1.34 0 0.68 0 0 Z " fill="#EAEAE5" transform="translate(1074,472)"/>
<path d="M0 0 C2.57860235 3.86790352 2.01114505 6.76613915 1.625 11.1875 C1.56828125 11.93708984 1.5115625 12.68667969 1.453125 13.45898438 C1.31189331 15.30676559 1.15723833 17.153512 1 19 C0.67 19 0.34 19 0 19 C-0.19476139 16.39619004 -0.38108614 13.79224467 -0.5625 11.1875 C-0.61857422 10.44951172 -0.67464844 9.71152344 -0.73242188 8.95117188 C-0.95769724 5.63211484 -1.06255812 3.18767436 0 0 Z " fill="#202325" transform="translate(533,481)"/>
<path d="M0 0 C6.625 -0.25 6.625 -0.25 10 2 C7.59454362 3.20272819 6.05003047 3.10071472 3.375 3.0625 C2.14910156 3.04896484 2.14910156 3.04896484 0.8984375 3.03515625 C-0.04128906 3.01775391 -0.04128906 3.01775391 -1 3 C-0.67 2.01 -0.34 1.02 0 0 Z " fill="#232425" transform="translate(480,478)"/>
<path d="M0 0 C0.33 0 0.66 0 1 0 C0.88490339 1.41750563 0.75746342 2.83401169 0.625 4.25 C0.55539062 5.03890625 0.48578125 5.8278125 0.4140625 6.640625 C-0.01507113 9.085877 -0.78600638 10.84836903 -2 13 C-2.66 13 -3.32 13 -4 13 C-3.52511102 11.01980257 -3.04497141 9.04086365 -2.5625 7.0625 C-2.29566406 5.96035156 -2.02882813 4.85820312 -1.75390625 3.72265625 C-1 1 -1 1 0 0 Z " fill="#EAEBE9" transform="translate(683,465)"/>
<path d="M0 0 C0.33 0.99 0.66 1.98 1 3 C1.66 3 2.32 3 3 3 C2.52112644 8.2676092 2.03685532 8.96314468 -2 13 C-1.34 8.71 -0.68 4.42 0 0 Z " fill="#E5E5E2" transform="translate(731,451)"/>
<path d="M0 0 C1.31223496 3.93670488 0.24296256 6.12488144 -1 10 C-1.99 10 -2.98 10 -4 10 C-3.71872579 8.51882199 -3.42466268 7.04006751 -3.125 5.5625 C-2.96257813 4.73878906 -2.80015625 3.91507813 -2.6328125 3.06640625 C-2.42398438 2.38449219 -2.21515625 1.70257812 -2 1 C-1.34 0.67 -0.68 0.34 0 0 Z " fill="#F0F0EC" transform="translate(772,512)"/>
<path d="M0 0 C0.66 0.33 1.32 0.66 2 1 C2.1949107 5.19058012 1.97459054 8.25867056 0 12 C-0.99 12.66 -1.98 13.32 -3 14 C-2.01 9.38 -1.02 4.76 0 0 Z " fill="#ECECE9" transform="translate(979,502)"/>
<path d="M0 0 C0.66 1.32 1.32 2.64 2 4 C1 5 1 5 -0.85766602 5.11352539 C-1.64842529 5.10828857 -2.43918457 5.10305176 -3.25390625 5.09765625 C-4.10791016 5.09443359 -4.96191406 5.09121094 -5.84179688 5.08789062 C-6.73962891 5.07951172 -7.63746094 5.07113281 -8.5625 5.0625 C-9.46419922 5.05798828 -10.36589844 5.05347656 -11.29492188 5.04882812 C-13.53001314 5.03700225 -15.76497437 5.0205222 -18 5 C-18 4.67 -18 4.34 -18 4 C-9.585 3.505 -9.585 3.505 -1 3 C-0.67 2.01 -0.34 1.02 0 0 Z " fill="#010101" transform="translate(1051,477)"/>
<path d="M0 0 C0.99 0.33 1.98 0.66 3 1 C3 1.66 3 2.32 3 3 C2.34 3 1.68 3 1 3 C0.67 5.97 0.34 8.94 0 12 C-0.66 12 -1.32 12 -2 12 C-1 3.42857143 -1 3.42857143 0 0 Z " fill="#EBEBE9" transform="translate(667,463)"/>
<path d="M0 0 C3.3 0 6.6 0 10 0 C9.34 1.98 8.68 3.96 8 6 C7.01 6 6.02 6 5 6 C5 4.68 5 3.36 5 2 C3.35 1.67 1.7 1.34 0 1 C0 0.67 0 0.34 0 0 Z " fill="#0A0B0D" transform="translate(661,450)"/>
<path d="M0 0 C-3.11910856 1.79275866 -5.67682428 2.34290718 -9.25 2.625 C-10.14203125 2.69976562 -11.0340625 2.77453125 -11.953125 2.8515625 C-12.62859375 2.90054687 -13.3040625 2.94953125 -14 3 C-13 1 -13 1 -10.375 -0.1875 C-6.55495663 -1.10714007 -3.82452397 -0.76490479 0 0 Z " fill="#0D0E11" transform="translate(468,422)"/>
<path d="M0 0 C0.66 0 1.32 0 2 0 C2.391875 0.94875 2.78375 1.8975 3.1875 2.875 C5.19793856 6.34127338 6.22699642 6.9802693 10 8 C8.375 8.75 8.375 8.75 6 9 C2.75 7.375 2.75 7.375 0 5 C-0.375 2.25 -0.375 2.25 0 0 Z " fill="#EFEFED" transform="translate(866,528)"/>
<path d="M0 0 C0.99 0 1.98 0 3 0 C2.25 6.625 2.25 6.625 0 10 C-0.66 10 -1.32 10 -2 10 C-1.34 6.7 -0.68 3.4 0 0 Z " fill="#EBEBE8" transform="translate(656,510)"/>
<path d="M0 0 C0.66 0 1.32 0 2 0 C2.50367757 1.45706726 3.00282556 2.91570096 3.5 4.375 C3.91765625 5.59316406 3.91765625 5.59316406 4.34375 6.8359375 C5 9 5 9 5 11 C4.34 11 3.68 11 3 11 C2.01 7.37 1.02 3.74 0 0 Z " fill="#F0F0EE" transform="translate(409,541)"/>
<path d="M0 0 C2.97 0.495 2.97 0.495 6 1 C5.01 2.485 5.01 2.485 4 4 C4.33 4.66 4.66 5.32 5 6 C3.35 6 1.7 6 0 6 C-1.24546405 3.50907189 -0.7767578 2.58919267 0 0 Z " fill="#FDFCF9" transform="translate(949,537)"/>
<path d="M0 0 C0.66 0.33 1.32 0.66 2 1 C-0.31 4.3 -2.62 7.6 -5 11 C-5.66 10.34 -6.32 9.68 -7 9 C-5.76465298 5.29395893 -3.80264776 3.66251537 -1 1 C-0.67 0.67 -0.34 0.34 0 0 Z " fill="#EEEFEC" transform="translate(743,497)"/>
<path d="M0 0 C1.125 1.75 1.125 1.75 2 4 C1.17133982 6.8174446 0.41463847 7.75609502 -2.125 9.25 C-2.74375 9.4975 -3.3625 9.745 -4 10 C-3.690625 9.2575 -3.38125 8.515 -3.0625 7.75 C-1.9798615 5.11611774 -1.9798615 5.11611774 -1.4375 2.75 C-1 1 -1 1 0 0 Z " fill="#FCFCF9" transform="translate(747,487)"/>
<path d="M0 0 C0 2.31 0 4.62 0 7 C0.66 7.33 1.32 7.66 2 8 C-1.875 7.125 -1.875 7.125 -3 6 C-3.04063832 4.33382885 -3.042721 2.66611905 -3 1 C-1 0 -1 0 0 0 Z " fill="#ECECEA" transform="translate(769,527)"/>
<path d="M0 0 C0.66 0 1.32 0 2 0 C1.75 2.375 1.75 2.375 1 5 C-1.0625 6.3125 -1.0625 6.3125 -3 7 C-3 3.47967572 -2.29648649 2.5614657 0 0 Z " fill="#F0EFED" transform="translate(744,490)"/>
<path d="M0 0 C1.60080151 4.00200378 0.29279692 7.04556236 -1 11 C-1.66 11 -2.32 11 -3 11 C-3.2025236 7.35457517 -2.84727108 5.15122713 -1 2 C-0.67 1.34 -0.34 0.68 0 0 Z " fill="#ECECEA" transform="translate(949,488)"/>
<path d="M0 0 C-0.99 1.485 -0.99 1.485 -2 3 C-3.9453125 3.29296875 -3.9453125 3.29296875 -6.125 3.1875 C-7.40375 3.125625 -8.6825 3.06375 -10 3 C-10.33 2.34 -10.66 1.68 -11 1 C-7.26562152 0.12132271 -3.83225427 -0.08912219 0 0 Z " fill="#E2E3DF" transform="translate(551,601)"/>
<path d="M0 0 C1.32 0 2.64 0 4 0 C4.75 1.75 4.75 1.75 5 4 C3.0625 6.25 3.0625 6.25 1 8 C1.33 6.35 1.66 4.7 2 3 C1.01 3.495 1.01 3.495 0 4 C0 2.68 0 1.36 0 0 Z " fill="#090B0C" transform="translate(737,490)"/>
<path d="M0 0 C-0.33 0.99 -0.66 1.98 -1 3 C-2.65 3.33 -4.3 3.66 -6 4 C-6 2.68 -6 1.36 -6 0 C-3.50907189 -1.24546405 -2.58919267 -0.7767578 0 0 Z " fill="#F0EFEB" transform="translate(1061,479)"/>
<path d="M0 0 C0.79921875 0.01804687 1.5984375 0.03609375 2.421875 0.0546875 C3.02515625 0.07789063 3.6284375 0.10109375 4.25 0.125 C4.25 0.455 4.25 0.785 4.25 1.125 C1.94 1.125 -0.37 1.125 -2.75 1.125 C-2.75 1.785 -2.75 2.445 -2.75 3.125 C-5.72 2.63 -5.72 2.63 -8.75 2.125 C-5.68753253 0.34090198 -3.52920727 -0.10380021 0 0 Z M-8.75 3.125 C-6.75 4.125 -6.75 4.125 -6.75 4.125 Z " fill="#C6C7C5" transform="translate(1118.75,470.875)"/>
<path d="M0 0 C0.98120464 3.05263664 0.98120464 4.94736336 0 8 C-0.99 8 -1.98 8 -3 8 C-2.74438677 5.6568787 -2.40729228 3.32156597 -2 1 C-1.34 0.67 -0.68 0.34 0 0 Z " fill="#212224" transform="translate(673,518)"/>
<path d="M0 0 C0.66 0.33 1.32 0.66 2 1 C1.25 3.9375 1.25 3.9375 0 7 C-2.125 7.875 -2.125 7.875 -4 8 C-3.6875 6.0625 -3.6875 6.0625 -3 4 C-2.01 3.67 -1.02 3.34 0 3 C0 2.01 0 1.02 0 0 Z " fill="#EDEDE9" transform="translate(810,508)"/>
<path d="M0 0 C1.46726798 3.81489674 0.43336419 6.29011622 -1 10 C-1.33 10 -1.66 10 -2 10 C-2 7.03 -2 4.06 -2 1 C-1.34 0.67 -0.68 0.34 0 0 Z " fill="#EBEBE9" transform="translate(470,507)"/>
<path d="M0 0 C0.66 0.33 1.32 0.66 2 1 C1.67 3.31 1.34 5.62 1 8 C0.01 8 -0.98 8 -2 8 C-1.125 1.125 -1.125 1.125 0 0 Z " fill="#EAEAE7" transform="translate(935,500)"/>
<path d="M0 0 C0.33 0 0.66 0 1 0 C1 2.64 1 5.28 1 8 C0.01 8 -0.98 8 -2 8 C-2.20086443 4.28400809 -2.1519437 3.22791555 0 0 Z " fill="#ECECE9" transform="translate(850,482)"/>
<path d="M0 0 C-2.06756277 2.7972908 -3.14440371 3.02692273 -6.6875 3.6875 C-7.780625 3.790625 -8.87375 3.89375 -10 4 C-6.66064924 0.50886057 -4.84725717 -0.1275594 0 0 Z " fill="#0C0D0E" transform="translate(660,451)"/>
<path d="M0 0 C1.65 0 3.3 0 5 0 C4.01 0.66 3.02 1.32 2 2 C2 2.99 2 3.98 2 5 C1.01 5 0.02 5 -1 5 C-0.67 3.35 -0.34 1.7 0 0 Z " fill="#FEFEFC" transform="translate(638,537)"/>
<path d="M0 0 C2.52588702 2.36292656 3.88820837 3.66462511 5 7 C3.35 6.67 1.7 6.34 0 6 C0 4.02 0 2.04 0 0 Z " fill="#292929" transform="translate(1018,528)"/>
<path d="M0 0 C0.66 0.33 1.32 0.66 2 1 C2 1.99 2 2.98 2 4 C-0.60582371 4.93065133 -1.64198224 5.14917407 -4.25 4.0625 C-4.8275 3.711875 -5.405 3.36125 -6 3 C-4.02 2.67 -2.04 2.34 0 2 C0 1.34 0 0.68 0 0 Z " fill="#1E2123" transform="translate(825,529)"/>
<path d="M0 0 C0.99 0 1.98 0 3 0 C3 1.65 3 3.3 3 5 C2.01 5.33 1.02 5.66 0 6 C0 4.02 0 2.04 0 0 Z " fill="#212323" transform="translate(1112,527)"/>
<path d="M0 0 C0.33 0 0.66 0 1 0 C1 2.97 1 5.94 1 9 C-1.3773161 6.6226839 -1.67028521 5.29714793 -2 2 C-1.34 1.34 -0.68 0.68 0 0 Z " fill="#222324" transform="translate(807,522)"/>
<path d="M0 0 C0.66 0 1.32 0 2 0 C1.46930939 3.82097239 0.50298434 6.06171403 -2 9 C-1.34 6.03 -0.68 3.06 0 0 Z " fill="#0B0C0C" transform="translate(950,490)"/>
<path d="M0 0 C2.31 0.33 4.62 0.66 7 1 C6.67 1.66 6.34 2.32 6 3 C4.35 3 2.7 3 1 3 C0.67 2.01 0.34 1.02 0 0 Z " fill="#2C2F2F" transform="translate(1111,478)"/>
<path d="M0 0 C1.23556641 0.01740234 1.23556641 0.01740234 2.49609375 0.03515625 C3.32238281 0.04417969 4.14867187 0.05320312 5 0.0625 C5.63808594 0.07410156 6.27617188 0.08570313 6.93359375 0.09765625 C4.00231913 2.05183933 2.37524696 2.74466618 -1.06640625 3.09765625 C-1.72640625 2.43765625 -2.38640625 1.77765625 -3.06640625 1.09765625 C-2.06640625 0.09765625 -2.06640625 0.09765625 0 0 Z " fill="#EEEDEA" transform="translate(514.06640625,389.90234375)"/>
</svg>
